Coordinates
version=1
nRows=14
nColumns=40
inDegrees=yes

Units are S.I. units (second, meters, Newtons, ...)
Angles are in degrees.

endheader
time	pelvis_tilt	pelvis_list	pelvis_rotation	pelvis_tx	pelvis_ty	pelvis_tz	hip_flexion_r	hip_adduction_r	hip_rotation_r	knee_angle_r	knee_angle_r_beta	ankle_angle_r	subtalar_angle_r	mtp_angle_r	hip_flexion_l	hip_adduction_l	hip_rotation_l	knee_angle_l	knee_angle_l_beta	ankle_angle_l	subtalar_angle_l	mtp_angle_l	lumbar_extension	lumbar_bending	lumbar_rotation	arm_flex_r	arm_add_r	arm_rot_r	elbow_flex_r	pro_sup_r	wrist_flex_r	wrist_dev_r	arm_flex_l	arm_add_l	arm_rot_l	elbow_flex_l	pro_sup_l	wrist_flex_l	wrist_dev_l
      8.10000000	     -8.17197933	     -5.03457925	    -14.54369306	      0.92593904	      0.92845600	      0.39951260	     22.93073830	     -0.21149016	     -5.70074893	     13.15346990	     13.15346990	      3.28272553	     13.07933946	      1.24393144	     11.25089052	     -6.49929606	    -16.60120547	     20.15477715	     20.15477715	     17.65101937	    -16.62637595	      6.02437859	     -9.91105305	      7.71934877	      2.67112968	    -16.61064759	     -9.98574732	     -4.70302314	     33.09661152	     45.49696537	      0.00000000	      0.00000000	     44.40799936	    -25.56429830	     -2.28254278	     61.64683034	     47.67901531	      0.00000000	      0.00000000
      8.12257143	     -8.26364165	     -4.67022443	    -15.02157889	      0.92631523	      0.92752713	      0.40415886	     22.87637266	      0.03110149	     -6.58042402	     11.65310083	     11.65310083	      4.02866892	     15.24270492	      6.65566855	     10.61283825	     -6.35264871	    -17.29809724	     19.52974170	     19.52974170	     17.16743030	    -16.55108207	      4.12304129	     -9.65548385	      7.33683126	      2.68633879	    -17.07223260	    -10.07901734	     -4.34113421	     35.22755580	     45.40796030	      0.00000000	      0.00000000	     45.11281523	    -25.99933686	     -2.86803129	     63.97760205	     47.76064057	      0.00000000	      0.00000000
      8.14514286	     -8.28911765	     -4.35114059	    -15.39813076	      0.92711239	      0.92671603	      0.40903561	     22.64192139	      0.38933977	     -6.72462988	     10.45469239	     10.45469239	      3.39771026	     15.65307394	      7.24159148	      9.96318221	     -6.22031877	    -17.78840851	     19.08970531	     19.08970531	     17.31992331	    -16.43769060	      3.96609263	     -9.39249105	      7.04093237	      2.77546121	    -16.79172350	    -10.01710545	     -4.21202245	     35.38562742	     45.40110471	      0.00000000	      0.00000000	     46.23519802	    -26.18280339	     -3.06897584	     64.70644472	     47.79518697	      0.00000000	      0.00000000
      8.16771429	     -8.25843470	     -4.06670604	    -15.72405555	      0.92843234	      0.92604331	      0.41412266	     22.52577405	      0.66665855	     -6.82905404	     10.18490735	     10.18490735	      3.08761196	     15.67921532	      7.15383768	      9.17613364	     -6.09935838	    -18.24644787	     18.57202712	     18.57202712	     17.43033230	    -16.18282916	      3.69484901	     -9.11667156	      6.77608742	      2.91926780	    -16.45415992	    -10.03814751	     -4.13730080	     35.59165952	     45.39662936	      0.00000000	      0.00000000	     46.99292304	    -26.28575198	     -3.33352394	     65.63585521	     47.83450929	      0.00000000	      0.00000000
      8.19028571	     -8.18752379	     -3.78872868	    -15.95540926	      0.93014617	      0.92543891	      0.41929106	     22.51230580	      0.84100179	     -6.79942287	     10.66009838	     10.66009838	      3.15663194	     15.22132198	      6.40457278	      8.31363704	     -5.94962989	    -18.66334044	     18.00046433	     18.00046433	     17.54302049	    -15.89023044	      3.45634599	     -8.90269649	      6.56423341	      2.97856277	    -16.01380593	    -10.12299309	     -4.12778119	     35.77859169	     45.39666773	      0.00000000	      0.00000000	     47.56855651	    -26.38518798	     -3.64597458	     66.52916698	     47.87522044	      0.00000000	      0.00000000
      8.21285714	     -8.15572645	     -3.59046304	    -16.14299000	      0.93226898	      0.92473485	      0.42475095	     22.43308012	      1.11749700	     -6.28628328	     11.23152337	     11.23152337	      2.19662562	     13.93012506	      1.76861891	      7.42784536	     -5.90949089	    -19.10195628	     17.37194961	     17.37194961	     17.22518700	    -15.70119697	      2.17794169	     -8.65546359	      6.47246436	      2.53010307	    -15.20373467	    -10.33325008	     -4.14263250	     35.84120775	     45.42786497	      0.00000000	      0.00000000	     46.80645567	    -26.85337905	     -5.17533337	     69.16601122	     48.01605217	      0.00000000	      0.00000000
      8.23542857	     -8.02845980	     -3.50954334	    -16.19150611	      0.93462797	      0.92445686	      0.43021324	     22.39490339	      1.29910257	     -6.20301248	     12.47142745	     12.47142745	      2.79320529	     13.10866600	      0.94670780	      6.40201702	     -5.91947722	    -19.29544436	     16.72386605	     16.72386605	     17.35304709	    -15.38184051	      2.23482401	     -8.51125889	      6.49181278	      2.56935770	    -14.63476183	    -10.63691324	     -4.17887777	     35.91533673	     45.43473284	      0.00000000	      0.00000000	     47.09852304	    -26.85576583	     -5.28937341	     69.37870276	     48.02898367	      0.00000000	      0.00000000
      8.25800000	     -7.95899794	     -3.29005535	    -16.23506271	      0.93707140	      0.92399263	      0.43593986	     22.52803449	      1.45576870	     -5.19890103	     13.89950911	     13.89950911	      3.07570218	     10.97345368	     -1.51403567	      5.43227937	     -5.81233988	    -19.57982255	     15.99952336	     15.99952336	     17.30101452	    -14.97553995	      1.99878624	     -8.23926424	      6.32556477	      2.38431498	    -13.85698985	    -10.85981398	     -4.32280242	     35.59565882	     45.47757094	      0.00000000	      0.00000000	     46.75114337	    -26.90037225	     -6.06882131	     70.37504238	     48.09288900	      0.00000000	      0.00000000
      8.28057143	     -7.82212025	     -3.18914504	    -16.15631260	      0.93959505	      0.92377877	      0.44167115	     22.52002972	      1.57831508	     -4.78080971	     15.35695070	     15.35695070	      3.84240765	      9.75585157	     -2.55701779	      4.37576370	     -5.81285259	    -19.78180751	     15.27708120	     15.27708120	     17.31438990	    -14.47093861	      1.99350123	     -8.11933969	      6.23526100	      2.26252829	    -13.14101251	    -11.19638656	     -4.50064044	     35.59117019	     45.50059281	      0.00000000	      0.00000000	     46.59065686	    -26.83843949	     -6.36737546	     70.74291016	     48.11613642	      0.00000000	      0.00000000
      8.30314286	     -7.74441990	     -3.23390349	    -15.96006928	      0.94199108	      0.92361945	      0.44754400	     22.39805122	      1.91854325	     -4.09775742	     16.53263874	     16.53263874	      4.44925269	      7.93810799	     -3.60038692	      3.42307290	     -6.04406533	    -19.92329419	     14.67433542	     14.67433542	     17.20718131	    -13.89227150	      1.71219827	     -8.01563209	      6.25346551	      1.76228850	    -12.07698835	    -11.47404943	     -5.08963971	     35.09157156	     45.58483705	      0.00000000	      0.00000000	     45.88621343	    -26.90736251	     -7.33151267	     71.73832398	     48.18435882	      0.00000000	      0.00000000
      8.32571429	     -7.64889174	     -3.22642135	    -15.72116478	      0.94421452	      0.92353711	      0.45329320	     22.27554851	      2.10645403	     -3.82696393	     17.68101655	     17.68101655	      5.33883125	      7.03450870	     -3.92220182	      2.51425625	     -6.20675494	    -19.99871326	     14.10542792	     14.10542792	     17.14754876	    -13.37546734	      1.80661773	     -7.97875644	      6.20189086	      1.66463015	    -11.35906668	    -11.90284303	     -5.30405776	     35.19017874	     45.60371610	      0.00000000	      0.00000000	     45.52411166	    -26.66800225	     -7.34208053	     71.67495816	     48.17876380	      0.00000000	      0.00000000
      8.34828571	     -7.61726766	     -3.32296157	    -15.37178048	      0.94617775	      0.92350415	      0.45903751	     22.06887407	      2.41472904	     -3.67906726	     18.52387747	     18.52387747	      6.11914382	      6.11572483	     -3.99533089	      1.74639550	     -6.54974960	    -19.99306012	     13.66847122	     13.66847122	     17.09035269	    -12.83964635	      1.86784554	     -7.92711845	      6.20874368	      1.47552772	    -10.64225590	    -12.34985185	     -5.55726850	     35.30367086	     45.62336929	      0.00000000	      0.00000000	     45.08062524	    -26.38136727	     -7.31817503	     71.53572719	     48.16920551	      0.00000000	      0.00000000
      8.37085714	     -7.67711845	     -3.43810258	    -14.88961722	      0.94774522	      0.92349589	      0.46456797	     21.82586394	      2.71849619	     -3.77534378	     19.02820148	     19.02820148	      6.75829284	      5.48015852	     -4.03111276	      1.23627656	     -6.98794744	    -19.83440514	     13.42808012	     13.42808012	     16.94760770	    -12.35221602	      1.93681557	     -7.87432603	      6.23182758	      1.28831911	     -9.86192118	    -12.82137173	     -5.76420276	     35.49650857	     45.63606536	      0.00000000	      0.00000000	     44.54951537	    -25.90962229	     -7.14655914	     71.31934607	     48.14837434	      0.00000000	      0.00000000
      8.39342857	     -7.69755104	     -3.49777160	    -14.41152897	      0.94908631	      0.92360814	      0.47009283	     21.56355002	      3.04742666	     -3.49703723	     19.48134890	     19.48134890	      7.52081241	      4.34626196	     -3.39191845	      0.70538492	     -7.41158621	    -19.98835661	     13.19553686	     13.19553686	     16.88284444	    -11.32738350	      1.93423332	     -7.85195442	      6.10658689	      0.83519795	     -8.84637469	    -13.20757277	     -6.28742905	     35.68388987	     45.67232043	      0.00000000	      0.00000000	     43.87740731	    -25.72986027	     -6.99352823	     70.65278215	     48.11713295	      0.00000000	      0.00000000
